<svg width="28" height="20" viewBox="0 0 28 20" fill="none" xmlns="http://www.w3.org/2000/svg">
<path d="M7.125 20C5.22917 20 3.60938 19.3438 2.26562 18.0312C0.921875 16.7188 0.25 15.1146 0.25 13.2188C0.25 11.5938 0.739583 10.1458 1.71875 8.875C2.69792 7.60417 3.97917 6.79167 5.5625 6.4375C6.08333 4.52083 7.125 2.96875 8.6875 1.78125C10.25 0.59375 12.0208 0 14 0C16.4375 0 18.5052 0.848958 20.2031 2.54688C21.901 4.24479 22.75 6.3125 22.75 8.75C24.1875 8.91667 25.3802 9.53646 26.3281 10.6094C27.276 11.6823 27.75 12.9375 27.75 14.375C27.75 15.9375 27.2031 17.2656 26.1094 18.3594C25.0156 19.4531 23.6875 20 22.125 20H15.25C14.5625 20 13.974 19.7552 13.4844 19.2656C12.9948 18.776 12.75 18.1875 12.75 17.5V11.0625L10.75 13L9 11.25L14 6.25L19 11.25L17.25 13L15.25 11.0625V17.5H22.125C23 17.5 23.7396 17.1979 24.3438 16.5938C24.9479 15.9896 25.25 15.25 25.25 14.375C25.25 13.5 24.9479 12.7604 24.3438 12.1562C23.7396 11.5521 23 11.25 22.125 11.25H20.25V8.75C20.25 7.02083 19.6406 5.54688 18.4219 4.32812C17.2031 3.10938 15.7292 2.5 14 2.5C12.2708 2.5 10.7969 3.10938 9.57812 4.32812C8.35938 5.54688 7.75 7.02083 7.75 8.75H7.125C5.91667 8.75 4.88542 9.17708 4.03125 10.0313C3.17708 10.8854 2.75 11.9167 2.75 13.125C2.75 14.3333 3.17708 15.3646 4.03125 16.2188C4.88542 17.0729 5.91667 17.5 7.125 17.5H10.25V20H7.125Z" fill="#001857"/>
</svg>
